<svg version="1.1" id="Layer_1" xmlns="http://www.w3.org/2000/svg" xmlns:xlink="http://www.w3.org/1999/xlink" x="0px" y="0px"
	 width="100%" viewBox="0 0 243 283" enable-background="new 0 0 243 283" xml:space="preserve">
<path fill="#FDFDFD" opacity="1.000000" stroke="none" 
	d="
M244.000000,117.000000 
	C244.000000,133.687561 244.000000,150.375122 243.642136,167.230347 
	C242.862747,168.063034 242.144592,168.693909 242.063492,169.398148 
	C240.448059,183.425049 236.030090,196.641571 230.157913,209.361481 
	C221.564102,227.976837 210.058899,244.389267 194.039932,257.595215 
	C179.360001,269.697235 163.290009,278.548096 144.466431,282.084167 
	C143.878403,282.194641 143.484436,283.338135 143.000000,284.000000 
	C129.645767,284.000000 116.291542,284.000000 102.768326,283.651062 
	C99.278214,282.281006 95.966782,281.227081 92.634407,280.244141 
	C69.762627,273.497681 51.104794,260.569916 35.770401,242.373154 
	C17.984442,221.267212 7.296691,197.094437 2.926582,169.964172 
	C2.807547,169.225174 1.665172,168.651016 1.000000,168.000000 
	C1.000000,151.312439 1.000000,134.624878 1.357851,117.769699 
	C2.137278,116.937088 2.855555,116.306252 2.936610,115.602074 
	C4.551222,101.574928 8.969934,88.358643 14.842162,75.638741 
	C23.436064,57.023388 34.941498,40.611164 50.959976,27.404617 
	C65.639687,15.301828 81.710541,6.452892 100.533607,2.915741 
	C101.121643,2.805239 101.515579,1.661858 102.000000,1.000001 
	C115.354225,1.000000 128.708450,1.000000 142.231659,1.348949 
	C145.721786,2.719052 149.033234,3.773175 152.365677,4.756051 
	C175.238190,11.502112 193.895844,24.430645 209.230759,42.627567 
	C227.016571,63.732841 237.704727,87.904549 242.074173,115.034393 
	C242.193283,115.773804 243.335098,116.348495 244.000000,117.000000 
M54.025967,173.986649 
	C54.025967,173.986649 54.099564,173.974365 54.072678,173.340576 
	C53.736187,172.860992 53.399696,172.381424 53.020432,171.963608 
	C53.020432,171.963608 53.087116,171.998215 53.054146,171.298843 
	C52.733723,170.502350 52.413303,169.705841 52.106297,168.989105 
	C52.106297,168.989105 52.180851,168.957764 52.325073,168.219711 
	C52.186195,167.484863 52.047318,166.750031 51.995239,165.082108 
	C51.714279,159.537170 51.433319,153.992249 51.250149,147.755737 
	C50.153919,143.790634 47.444317,141.343109 43.475113,141.166183 
	C38.700535,140.953339 34.362873,142.403061 31.394167,146.952560 
	C31.394167,146.952560 31.109922,147.145264 30.587614,147.141785 
	C30.384317,147.407181 30.181021,147.672562 29.369814,148.232162 
	C26.458960,152.829834 23.124262,157.218567 20.731730,162.071762 
	C16.642591,170.366455 16.807722,179.409958 16.989611,189.131653 
	C15.770922,191.288864 15.460173,193.018005 19.166765,193.662766 
	C20.343224,196.398361 21.519684,199.133957 21.887201,201.923874 
	C21.239826,202.747284 20.592451,203.570694 19.945076,204.394104 
	C22.197952,205.273270 24.450829,206.152435 27.031273,207.572189 
	C27.340103,208.107788 27.648935,208.643402 27.946159,209.913742 
	C27.698984,210.869644 26.994919,212.011871 27.293938,212.745010 
	C28.060650,214.624878 29.071630,216.510559 30.435190,217.974564 
	C30.822874,218.390808 32.755352,217.368240 34.540867,217.241043 
	C35.382626,218.100647 36.224384,218.960251 36.762535,220.546936 
	C36.586193,222.256149 36.409855,223.965378 36.190353,226.092941 
	C38.937004,225.069778 40.689625,224.416916 42.997288,223.945633 
	C43.671970,224.292526 44.346653,224.639420 44.995346,225.184586 
	C44.995346,225.184586 45.018719,225.383209 45.422157,225.733795 
	C45.944569,225.823959 46.466980,225.914108 47.513958,226.103302 
	C47.683739,226.156586 47.853523,226.209869 48.275120,226.614487 
	C48.488716,226.825195 48.744370,226.949310 49.693157,227.222137 
	C50.768833,227.533066 51.844509,227.843979 53.300217,228.833603 
	C56.815311,229.569351 60.330410,230.305099 64.307808,231.807159 
	C65.282967,231.978180 66.258148,232.298553 67.233284,232.298416 
	C91.852577,232.295105 116.471939,232.276840 141.090942,232.176163 
	C142.434921,232.170685 143.775864,231.427963 145.868240,231.028732 
	C150.228012,228.345200 154.587784,225.661667 159.671921,222.943405 
	C163.229492,220.173370 165.124313,216.712891 164.232849,211.195496 
	C163.756836,207.904053 163.280823,204.612625 163.118973,200.654739 
	C163.118973,198.900772 163.118973,197.146805 163.118973,195.091263 
	C161.063568,195.559143 159.976715,195.806534 158.332947,195.762863 
	C157.229614,194.793533 156.126282,193.824219 155.020035,192.141144 
	C155.012543,191.426834 155.005051,190.712509 155.274475,189.893677 
	C155.183578,189.929932 155.092682,189.966187 154.249847,190.001572 
	C153.498138,190.005371 152.746445,190.009171 151.999390,190.000656 
	C151.999390,190.000656 151.987625,190.005630 151.900238,189.614639 
	C151.798965,189.356277 151.630035,189.154572 151.195312,188.978378 
	C151.195312,188.978378 151.000000,189.023911 151.267303,188.187332 
	C150.589218,184.524643 149.911133,180.861969 150.011047,177.080780 
	C150.599945,176.613373 151.664124,176.179398 151.699722,175.673080 
	C151.912598,172.646332 145.500092,166.138275 141.678329,165.670258 
	C141.482269,165.294067 141.286209,164.917862 141.052216,163.905685 
	C139.987961,162.974411 138.923691,162.043121 137.966599,161.041779 
	C137.966599,161.041779 137.899765,161.150986 137.699036,160.573532 
	C137.145020,160.377731 136.591019,160.181946 135.533371,159.898651 
	C135.344757,159.626282 135.156143,159.353897 134.904587,158.400131 
	C133.998901,157.924240 133.093216,157.448334 131.698914,156.551407 
	C130.432129,155.757812 129.165344,154.964218 128.190552,153.568222 
	C129.162720,152.838364 130.134872,152.108490 131.107040,151.378632 
	C130.920502,150.983734 130.733963,150.588837 130.547440,150.193939 
	C128.703751,151.104965 126.860062,152.015976 124.283798,152.858109 
	C122.875092,152.427795 121.466393,151.997482 119.938904,151.049805 
	C119.292984,151.030823 118.647072,151.011841 117.064285,150.974365 
	C110.045784,151.679916 103.027283,152.385468 95.280373,153.095276 
	C92.304298,154.445679 89.328224,155.796082 85.421066,157.057098 
	C83.078186,157.057098 80.735306,157.057098 78.392426,157.057098 
	C77.845070,157.871872 77.297714,158.686646 76.750359,159.501419 
	C78.128838,160.126022 79.507309,160.750626 80.493355,161.974747 
	C78.837868,163.974747 77.233101,166.019547 75.514778,167.964020 
	C73.055084,170.747452 70.512413,173.457550 67.247032,176.270355 
	C64.168594,176.814758 61.090153,177.359146 58.016876,177.978821 
	C58.016876,177.978821 58.091145,177.965454 57.917194,177.452835 
	C57.610081,177.288986 57.302967,177.125122 56.997124,177.007996 
	C56.997124,177.007996 57.041199,176.992462 56.778255,176.464767 
	C56.198380,175.956818 55.618504,175.448853 55.000008,174.992432 
	C55.000008,174.992432 55.062794,174.978149 54.936085,174.452835 
	C54.637341,174.272995 54.338596,174.093170 54.025967,173.986649 
M72.138100,89.227470 
	C73.290787,84.880402 74.443474,80.533333 75.999863,75.678368 
	C81.206276,64.611061 89.637085,56.744118 100.843628,51.168671 
	C101.282494,50.970787 101.721359,50.772907 102.940704,50.370022 
	C118.463448,44.788509 133.477966,46.036514 148.519821,54.147724 
	C148.909592,54.342880 149.299347,54.538036 150.156586,55.171436 
	C152.037888,56.466808 153.919189,57.762177 155.966660,59.492241 
	C157.204742,60.653625 158.442825,61.815014 159.973511,63.624249 
	C166.816193,71.415359 170.428406,80.737885 173.128906,90.588745 
	C175.045731,97.580948 179.584396,100.398003 186.005264,99.292664 
	C191.214783,98.395851 194.578674,93.995461 192.876907,87.029907 
	C190.748550,78.318405 186.844879,70.040634 183.620407,61.418484 
	C183.620407,61.418484 183.531982,61.262043 183.281006,60.661312 
	C181.244263,57.916958 179.207535,55.172604 176.960419,51.829502 
	C160.424240,33.035702 139.440735,24.487703 114.701744,26.297047 
	C102.943169,27.157038 91.032700,29.223770 81.081741,38.023254 
	C68.070618,47.013325 58.761925,58.783867 53.755630,74.401176 
	C53.755630,74.401176 53.777157,74.893089 53.336124,75.289238 
	C53.239803,75.862350 53.143482,76.435463 52.682312,77.726852 
	C52.481236,78.765984 52.280163,79.805115 51.816315,81.521568 
	C51.570690,89.683708 51.325062,97.845848 50.974819,106.583183 
	C51.221767,107.083687 51.468719,107.584183 51.787117,108.832001 
	C52.480389,110.115768 53.173656,111.399536 54.269142,112.929512 
	C54.588795,112.909843 54.883381,112.813614 55.213699,112.769554 
	C55.213699,112.769554 55.276638,112.963913 54.602283,113.722282 
	C57.349384,115.915298 60.096485,118.108315 63.327007,120.898117 
	C77.389755,123.521477 91.452507,126.144836 105.983376,129.185959 
	C106.416733,129.418594 106.826111,129.778656 107.286934,129.865402 
	C121.752213,132.588013 136.206238,135.376556 150.702332,137.925583 
	C154.853027,138.655441 159.127670,138.680267 163.786163,139.682053 
	C165.062317,140.495239 166.338486,141.308411 167.980911,142.730042 
	C170.852707,144.671188 173.983887,146.320435 176.552414,148.602859 
	C189.236343,159.873871 190.885345,174.364395 187.917130,190.682144 
	C186.294830,194.454941 184.672531,198.227737 182.568954,202.460236 
	C181.012863,204.292175 179.456772,206.124115 177.142044,208.023239 
	C172.108917,212.936279 172.756485,218.778290 179.111496,223.892059 
	C179.111496,223.892059 179.536713,224.053207 179.536713,224.053207 
	C179.536713,224.053207 179.986938,223.989471 180.645782,224.432632 
	C186.905594,226.546158 191.376007,223.410858 194.886765,218.949173 
	C207.685913,202.683243 212.629166,184.312103 208.373169,163.889359 
	C206.648605,155.613831 203.905548,147.628784 197.120880,141.891556 
	C197.120880,141.891556 197.251480,141.817490 197.201019,141.107452 
	C189.588913,130.195099 179.009995,123.413078 166.404510,119.956619 
	C156.808548,117.325371 147.034622,115.269722 137.256760,113.390442 
	C116.545288,109.409760 95.779510,105.711609 74.819008,101.369347 
	C74.209854,100.918068 73.600693,100.466782 72.944771,99.549583 
	C72.891731,99.201027 72.696136,98.976860 72.288055,98.242516 
	C72.197395,97.827057 72.106728,97.411606 72.691429,96.909508 
	C72.456863,94.605301 72.222290,92.301102 72.138100,89.227470 
z"/>
<path fill="#000000" opacity="1.000000" stroke="none" 
	d="
M101.531342,1.000001 
	C101.515579,1.661858 101.121643,2.805239 100.533607,2.915741 
	C81.710541,6.452892 65.639687,15.301828 50.959976,27.404617 
	C34.941498,40.611164 23.436064,57.023388 14.842162,75.638741 
	C8.969934,88.358643 4.551222,101.574928 2.936610,115.602074 
	C2.855555,116.306252 2.137278,116.937088 1.357851,117.301041 
	C1.000000,78.411430 1.000000,39.822865 1.000000,1.000000 
	C34.353863,1.000000 67.708275,1.000000 101.531342,1.000001 
z"/>
<path fill="#000000" opacity="1.000000" stroke="none" 
	d="
M1.000000,168.468658 
	C1.665172,168.651016 2.807547,169.225174 2.926582,169.964172 
	C7.296691,197.094437 17.984442,221.267212 35.770401,242.373154 
	C51.104794,260.569916 69.762627,273.497681 92.634407,280.244141 
	C95.966782,281.227081 99.278214,282.281006 102.299667,283.651062 
	C68.401337,284.000000 34.802673,284.000000 1.000000,284.000000 
	C1.000000,245.646011 1.000000,207.291672 1.000000,168.468658 
z"/>
<path fill="#000000" opacity="1.000000" stroke="none" 
	d="
M143.468658,284.000000 
	C143.484436,283.338135 143.878403,282.194641 144.466431,282.084167 
	C163.290009,278.548096 179.360001,269.697235 194.039932,257.595215 
	C210.058899,244.389267 221.564102,227.976837 230.157913,209.361481 
	C236.030090,196.641571 240.448059,183.425049 242.063492,169.398148 
	C242.144592,168.693909 242.862747,168.063034 243.642136,167.699005 
	C244.000000,206.588562 244.000000,245.177124 244.000000,284.000000 
	C210.646133,284.000000 177.291733,284.000000 143.468658,284.000000 
z"/>
<path fill="#000000" opacity="1.000000" stroke="none" 
	d="
M244.000000,116.531342 
	C243.335098,116.348495 242.193283,115.773804 242.074173,115.034393 
	C237.704727,87.904549 227.016571,63.732841 209.230759,42.627567 
	C193.895844,24.430645 175.238190,11.502112 152.365677,4.756051 
	C149.033234,3.773175 145.721786,2.719052 142.700317,1.348949 
	C176.598663,1.000000 210.197327,1.000000 244.000000,1.000000 
	C244.000000,39.353985 244.000000,77.708336 244.000000,116.531342 
z"/>
<path fill="#FE5552" opacity="1.000000" stroke="none" 
	d="
M141.090149,164.541672 
	C141.286209,164.917862 141.482269,165.294067 141.963074,166.057953 
	C142.513535,166.893478 142.779266,167.341324 143.123322,168.062073 
	C143.504181,168.540848 143.806686,168.746704 144.067810,168.939453 
	C144.026428,168.926361 144.104294,168.887939 144.059906,169.273987 
	C146.343689,176.114655 148.671844,182.569275 151.000000,189.023911 
	C151.000000,189.023911 151.195312,188.978378 151.202118,189.224564 
	C151.347794,189.824646 151.607361,190.002930 151.987625,190.005630 
	C151.987625,190.005630 151.999390,190.000656 152.052628,190.252747 
	C152.412491,190.892563 152.719101,191.280289 153.022064,192.036133 
	C154.068451,193.811646 154.934296,195.418121 156.201599,196.590729 
	C160.783798,200.830505 163.073883,205.998596 163.051819,212.588394 
	C162.151794,215.358673 161.267746,217.755981 160.009705,220.145905 
	C156.471283,221.293793 153.306870,222.449081 150.142441,223.604355 
	C148.963989,225.703751 147.155396,227.361542 145.399155,229.073044 
	C144.856644,229.601746 144.456711,230.276779 143.524780,230.922272 
	C116.653870,230.986771 90.249687,231.013809 63.845509,231.040833 
	C60.330410,230.305099 56.815311,229.569351 53.248295,228.169128 
	C53.120907,225.820450 53.045441,224.136230 53.013367,223.420410 
	C50.196575,222.482590 48.343372,221.755676 46.428894,221.270599 
	C45.331856,220.992630 44.135281,221.107529 42.594307,221.031525 
	C41.425644,221.050873 40.646191,221.084259 39.922291,221.122559 
	C39.977848,221.127472 39.876621,221.174362 39.896606,220.808197 
	C37.918377,218.978317 35.920158,217.514587 33.948799,216.022018 
	C33.975658,215.993164 33.952419,216.068451 33.955677,215.728958 
	C33.024925,214.567459 32.090912,213.745438 30.979088,212.655029 
	C29.853436,211.317444 28.905598,210.248230 27.957762,209.179001 
	C27.648935,208.643402 27.340103,208.107788 26.882812,207.086914 
	C26.598082,206.333313 26.389645,206.144745 26.082851,205.655396 
	C25.098650,202.995850 24.240335,200.668655 23.165531,198.446182 
	C18.249994,188.281906 17.164883,177.683456 20.978926,167.117157 
	C23.245193,160.838745 26.986496,155.092773 30.294136,148.930527 
	C30.719072,148.217514 30.914497,147.681396 31.109922,147.145264 
	C31.109922,147.145264 31.394167,146.952560 31.943340,146.930054 
	C33.358322,146.445618 34.243618,146.016510 35.086544,145.516037 
	C38.627037,143.413910 42.217159,141.731827 46.290310,144.166214 
	C50.038013,146.406113 49.985508,150.073395 50.067577,153.819748 
	C50.142254,157.228973 50.638409,160.628937 50.952568,164.361664 
	C50.961334,165.128906 50.966316,165.567444 50.971756,166.355652 
	C51.375095,167.456116 51.777973,168.206940 52.180851,168.957764 
	C52.180851,168.957764 52.106297,168.989105 52.058136,169.302185 
	C52.369022,170.409592 52.728069,171.203903 53.087116,171.998215 
	C53.087116,171.998215 53.020432,171.963608 53.031845,172.251556 
	C53.395359,173.017776 53.747459,173.496078 54.099564,173.974365 
	C54.099564,173.974365 54.025967,173.986649 54.111794,174.203156 
	C54.486015,174.605804 54.774406,174.791977 55.062798,174.978149 
	C55.062794,174.978149 55.000008,174.992432 55.024563,175.303757 
	C55.713146,176.074219 56.377171,176.533340 57.041199,176.992462 
	C57.041199,176.992462 56.997124,177.007996 57.096786,177.229370 
	C57.494678,177.622314 57.792912,177.793884 58.091141,177.965454 
	C58.091145,177.965454 58.016876,177.978821 58.212437,178.252533 
	C61.743584,180.958771 64.911827,180.008591 68.373093,178.003540 
	C70.352463,176.584122 72.462112,175.509415 73.545921,173.788589 
	C79.108803,164.956146 86.719734,158.568848 96.426559,154.019928 
	C103.494499,153.673111 110.211540,152.592819 116.763245,153.225281 
	C122.006447,153.731400 127.048676,156.319382 132.468521,158.079025 
	C133.493805,158.476944 134.230667,158.779236 134.967529,159.081528 
	C135.156143,159.353897 135.344757,159.626282 135.894272,160.229462 
	C136.803375,160.757187 137.351578,160.954086 137.899765,161.150970 
	C137.899765,161.150986 137.966599,161.041779 137.932312,161.397247 
	C138.962082,162.682358 140.026108,163.612015 141.090149,164.541672 
z"/>
<path fill="#141833" opacity="1.000000" stroke="none" 
	d="
M55.152901,112.640823 
	C54.883381,112.813614 54.588795,112.909843 54.133118,112.352859 
	C53.236618,110.545700 52.476143,109.315193 51.715668,108.084686 
	C51.468719,107.584183 51.221767,107.083687 51.391533,106.225021 
	C52.151978,105.364197 52.769550,104.876480 52.797920,104.356598 
	C53.162014,97.685120 53.527454,91.010765 53.661377,84.332497 
	C53.684471,83.180786 52.633778,82.007545 52.079086,80.844246 
	C52.280163,79.805115 52.481236,78.765984 53.170609,77.330536 
	C53.698326,76.253845 53.737740,75.573471 53.777153,74.893089 
	C53.777157,74.893089 53.755630,74.401176 54.280567,74.198174 
	C55.582077,73.309036 56.757042,72.770317 57.073853,71.914070 
	C60.384811,62.965549 65.607712,55.311783 72.371643,48.645645 
	C75.945061,45.123894 79.469376,41.552322 83.407898,38.003510 
	C85.524559,37.506283 87.417725,37.312851 88.947998,36.464676 
	C105.969727,27.030230 123.755119,25.886030 142.092285,31.624861 
	C146.758408,33.085182 152.146896,34.309742 155.496933,37.458355 
	C161.872833,43.450909 170.599030,47.028572 174.694427,55.459053 
	C174.911896,55.906723 176.202087,55.833286 176.997177,56.251354 
	C177.001450,56.500267 177.011597,56.998062 177.018097,57.228378 
	C177.349396,57.633217 177.674179,57.807739 178.279785,58.186325 
	C180.217728,59.347603 181.874863,60.304821 183.531982,61.262039 
	C183.531982,61.262043 183.620407,61.418484 183.467133,61.886734 
	C184.542694,66.235016 185.888260,70.082794 186.971588,74.003036 
	C188.414505,79.224472 190.156357,84.441460 190.801758,89.777451 
	C191.227188,93.294678 189.328140,96.602325 185.322662,97.731789 
	C181.164490,98.904327 179.237991,96.147240 177.515152,93.149483 
	C176.863022,92.014732 176.313095,90.817635 175.768631,89.625191 
	C172.197464,81.803787 168.816376,73.886795 164.933411,66.223869 
	C164.139252,64.656616 161.480286,64.034294 159.680908,62.976398 
	C158.442825,61.815014 157.204742,60.653625 156.210388,58.904892 
	C158.023041,55.145069 155.021637,54.856129 153.460724,54.142372 
	C152.495422,53.700970 150.965546,54.494209 149.689117,54.733192 
	C149.299347,54.538036 148.909592,54.342880 148.252441,53.576885 
	C145.729279,51.105812 143.660202,47.889977 141.184616,47.538673 
	C131.706696,46.193684 122.106285,45.391994 112.534370,45.185226 
	C108.655022,45.101425 103.894775,45.505558 102.160225,50.575024 
	C101.721359,50.772907 101.282494,50.970787 100.248260,51.018318 
	C97.177841,51.245766 94.703094,51.924324 92.227638,51.926987 
	C88.963669,51.930496 87.075256,53.163841 85.855469,56.234222 
	C85.163506,57.975975 83.608101,59.424648 82.278778,60.853916 
	C78.230225,65.206848 74.330193,69.611168 73.677818,76.160507 
	C71.978378,82.624428 70.430603,88.886154 69.390678,95.231117 
	C69.222580,96.256775 71.312057,97.652443 72.357979,98.877075 
	C72.696136,98.976860 72.891731,99.201027 72.842209,100.084442 
	C73.486015,101.422638 74.232384,102.225975 75.232056,103.305588 
	C89.182907,106.432198 102.876740,109.300529 116.579193,112.127060 
	C127.095985,114.296455 137.573975,116.713211 148.160873,118.466431 
	C158.157745,120.121941 168.063339,121.922012 176.985733,126.939255 
	C181.601669,129.534897 186.846725,131.146317 189.705521,136.594116 
	C190.965027,138.994247 194.661453,140.115570 197.251480,141.817490 
	C197.251480,141.817490 197.120880,141.891556 197.105652,142.220779 
	C199.054337,146.846771 201.152863,151.087875 202.957184,155.450638 
	C208.565948,169.012299 208.299728,182.743835 204.276276,196.688095 
	C201.796524,205.282150 197.219177,212.683746 191.191284,218.918274 
	C188.542099,221.658279 183.786255,222.361465 179.986938,223.989471 
	C179.986938,223.989471 179.536713,224.053207 179.536713,224.053207 
	C179.536713,224.053207 179.111496,223.892059 178.996017,223.281464 
	C178.500504,218.140839 174.005539,213.635468 178.764282,209.032303 
	C178.794846,209.002747 178.202286,208.329010 177.900696,207.956055 
	C179.456772,206.124115 181.012863,204.292175 183.158096,202.190338 
	C185.831696,198.281937 187.916153,194.643433 190.159180,190.648056 
	C194.799988,177.296341 191.061676,165.104141 184.931702,154.059418 
	C181.595612,148.048615 176.720413,141.201340 167.614639,142.121597 
	C166.338486,141.308411 165.062317,140.495239 163.283630,139.321411 
	C160.938751,138.302582 159.140488,137.451050 157.246506,137.019440 
	C148.766006,135.086853 140.295593,133.074783 131.750183,131.471710 
	C122.543167,129.744522 113.256676,128.440933 103.739502,126.681618 
	C93.633339,124.606895 83.811378,122.688965 73.941879,121.058830 
	C70.300087,120.457329 66.546295,120.533989 62.843582,120.301338 
	C60.096485,118.108315 57.349384,115.915298 55.237804,113.626648 
	C56.349144,113.381882 56.824966,113.232742 57.300785,113.083595 
	C56.584824,112.936005 55.868862,112.788414 55.152901,112.640823 
z"/>
<path fill="#171823" opacity="1.000000" stroke="none" 
	d="
M197.226257,141.462463 
	C194.661453,140.115570 190.965027,138.994247 189.705521,136.594116 
	C186.846725,131.146317 181.601669,129.534897 176.985733,126.939255 
	C168.063339,121.922012 158.157745,120.121941 148.160873,118.466431 
	C137.573975,116.713211 127.095985,114.296455 116.579193,112.127060 
	C102.876740,109.300529 89.182907,106.432198 75.247772,103.022552 
	C75.018791,102.274696 75.027397,102.086143 75.036003,101.897598 
	C95.779510,105.711609 116.545288,109.409760 137.256760,113.390442 
	C147.034622,115.269722 156.808548,117.325371 166.404510,119.956619 
	C179.009995,123.413078 189.588913,130.195099 197.226257,141.462463 
z"/>
<path fill="#171727" opacity="1.000000" stroke="none" 
	d="
M176.992889,56.002441 
	C176.202087,55.833286 174.911896,55.906723 174.694427,55.459053 
	C170.599030,47.028572 161.872833,43.450909 155.496933,37.458355 
	C152.146896,34.309742 146.758408,33.085182 142.092285,31.624861 
	C123.755119,25.886030 105.969727,27.030230 88.947998,36.464676 
	C87.417725,37.312851 85.524559,37.506283 83.089447,37.981350 
	C82.167709,37.934479 81.956436,37.910042 81.745171,37.885605 
	C91.032700,29.223770 102.943169,27.157038 114.701744,26.297047 
	C139.440735,24.487703 160.424240,33.035702 177.021957,52.574524 
	C177.053299,54.213844 177.023102,55.108143 176.992889,56.002441 
z"/>
<path fill="#191926" opacity="1.000000" stroke="none" 
	d="
M180.316360,224.211060 
	C183.786255,222.361465 188.542099,221.658279 191.191284,218.918274 
	C197.219177,212.683746 201.796524,205.282150 204.276276,196.688095 
	C208.299728,182.743835 208.565948,169.012299 202.957184,155.450638 
	C201.152863,151.087875 199.054337,146.846771 197.144318,142.156433 
	C203.905548,147.628784 206.648605,155.613831 208.373169,163.889359 
	C212.629166,184.312103 207.685913,202.683243 194.886765,218.949173 
	C191.376007,223.410858 186.905594,226.546158 180.316360,224.211060 
z"/>
<path fill="#171821" opacity="1.000000" stroke="none" 
	d="
M159.827209,63.300323 
	C161.480286,64.034294 164.139252,64.656616 164.933411,66.223869 
	C168.816376,73.886795 172.197464,81.803787 175.768631,89.625191 
	C176.313095,90.817635 176.863022,92.014732 177.515152,93.149483 
	C179.237991,96.147240 181.164490,98.904327 185.322662,97.731789 
	C189.328140,96.602325 191.227188,93.294678 190.801758,89.777451 
	C190.156357,84.441460 188.414505,79.224472 186.971588,74.003036 
	C185.888260,70.082794 184.542694,66.235016 183.510727,61.965302 
	C186.844879,70.040634 190.748550,78.318405 192.876907,87.029907 
	C194.578674,93.995461 191.214783,98.395851 186.005264,99.292664 
	C179.584396,100.398003 175.045731,97.580948 173.128906,90.588745 
	C170.428406,80.737885 166.816193,71.415359 159.827209,63.300323 
z"/>
<path fill="#14161E" opacity="1.000000" stroke="none" 
	d="
M167.797775,142.425812 
	C176.720413,141.201340 181.595612,148.048615 184.931702,154.059418 
	C191.061676,165.104141 194.799988,177.296341 189.922272,190.553650 
	C189.091705,190.550659 188.656586,190.285156 188.221481,190.019669 
	C190.885345,174.364395 189.236343,159.873871 176.552414,148.602859 
	C173.983887,146.320435 170.852707,144.671188 167.797775,142.425812 
z"/>
<path fill="#0E1018" opacity="1.000000" stroke="none" 
	d="
M104.004860,126.952530 
	C113.256676,128.440933 122.543167,129.744522 131.750183,131.471710 
	C140.295593,133.074783 148.766006,135.086853 157.246506,137.019440 
	C159.140488,137.451050 160.938751,138.302582 163.063293,138.994583 
	C159.127670,138.680267 154.853027,138.655441 150.702332,137.925583 
	C136.206238,135.376556 121.752213,132.588013 107.286934,129.865402 
	C106.826111,129.778656 106.416733,129.418594 105.501968,128.659729 
	C104.681992,127.739845 104.343422,127.346184 104.004860,126.952530 
z"/>
<path fill="#16192D" opacity="1.000000" stroke="none" 
	d="
M73.998169,75.985962 
	C74.330193,69.611168 78.230225,65.206848 82.278778,60.853916 
	C83.608101,59.424648 85.163506,57.975975 85.855469,56.234222 
	C87.075256,53.163841 88.963669,51.930496 92.227638,51.926987 
	C94.703094,51.924324 97.177841,51.245766 100.002213,51.005878 
	C89.637085,56.744118 81.206276,64.611061 75.398827,75.879730 
	C74.531250,76.049377 74.264709,76.017670 73.998169,75.985962 
z"/>
<path fill="#151722" opacity="1.000000" stroke="none" 
	d="
M102.550461,50.472523 
	C103.894775,45.505558 108.655022,45.101425 112.534370,45.185226 
	C122.106285,45.391994 131.706696,46.193684 141.184616,47.538673 
	C143.660202,47.889977 145.729279,51.105812 147.999176,53.365101 
	C133.477966,46.036514 118.463448,44.788509 102.550461,50.472523 
z"/>
<path fill="#CC5C5A" opacity="1.000000" stroke="none" 
	d="
M30.064621,149.107407 
	C26.986496,155.092773 23.245193,160.838745 20.978926,167.117157 
	C17.164883,177.683456 18.249994,188.281906 23.165531,198.446182 
	C24.240335,200.668655 25.098650,202.995850 25.749161,205.653900 
	C24.526485,204.645172 23.611315,203.257355 22.696144,201.869553 
	C21.519684,199.133957 20.343224,196.398361 18.981857,192.990692 
	C18.311710,191.015152 17.826473,189.711670 17.341236,188.408203 
	C16.807722,179.409958 16.642591,170.366455 20.731730,162.071762 
	C23.124262,157.218567 26.458960,152.829834 29.692982,148.377625 
	C30.032305,148.717834 30.048462,148.912613 30.064621,149.107407 
z"/>
<path fill="#121321" opacity="1.000000" stroke="none" 
	d="
M81.413452,37.954430 
	C81.956436,37.910042 82.167709,37.934479 82.697426,37.981079 
	C79.469376,41.552322 75.945061,45.123894 72.371643,48.645645 
	C65.607712,55.311783 60.384811,62.965549 57.073853,71.914070 
	C56.757042,72.770317 55.582077,73.309036 54.430595,74.002975 
	C58.761925,58.783867 68.070618,47.013325 81.413452,37.954430 
z"/>
<path fill="#0F121A" opacity="1.000000" stroke="none" 
	d="
M103.739502,126.681618 
	C104.343422,127.346184 104.681992,127.739845 105.267906,128.450851 
	C91.452507,126.144836 77.389755,123.521477 63.085297,120.599731 
	C66.546295,120.533989 70.300087,120.457329 73.941879,121.058830 
	C83.811378,122.688965 93.633339,124.606895 103.739502,126.681618 
z"/>
<path fill="#CC3B36" opacity="1.000000" stroke="none" 
	d="
M64.076660,231.423996 
	C90.249687,231.013809 116.653870,230.986771 143.805084,230.969635 
	C144.740829,230.995804 144.929520,231.012100 145.118225,231.028397 
	C143.775864,231.427963 142.434921,232.170685 141.090942,232.176163 
	C116.471939,232.276840 91.852577,232.295105 67.233284,232.298416 
	C66.258148,232.298553 65.282967,231.978180 64.076660,231.423996 
z"/>
<path fill="#CE6162" opacity="1.000000" stroke="none" 
	d="
M96.004295,154.025879 
	C86.719734,158.568848 79.108803,164.956146 73.545921,173.788589 
	C72.462112,175.509415 70.352463,176.584122 68.363823,177.694550 
	C68.009491,177.021149 68.007332,176.610062 68.005173,176.198959 
	C70.512413,173.457550 73.055084,170.747452 75.514778,167.964020 
	C77.233101,166.019547 78.837868,163.974747 80.955307,161.555542 
	C83.062218,159.806381 84.707176,158.476440 86.352142,157.146484 
	C89.328224,155.796082 92.304298,154.445679 95.643097,153.326843 
	C96.005821,153.558426 96.004295,154.025879 96.004295,154.025879 
z"/>
<path fill="#D25652" opacity="1.000000" stroke="none" 
	d="
M96.426559,154.019928 
	C96.004295,154.025879 96.005821,153.558426 96.007301,153.324722 
	C103.027283,152.385468 110.045784,151.679916 117.729904,151.190186 
	C118.949585,151.459717 119.503639,151.513443 120.057693,151.567169 
	C121.466393,151.997482 122.875092,152.427795 124.855629,153.144562 
	C126.251167,153.677536 127.074875,153.924072 127.898575,154.170624 
	C129.165344,154.964218 130.432129,155.757812 131.904968,157.014435 
	C132.134033,157.646103 132.157059,157.814743 132.180099,157.983398 
	C127.048676,156.319382 122.006447,153.731400 116.763245,153.225281 
	C110.211540,152.592819 103.494499,153.673111 96.426559,154.019928 
z"/>
<path fill="#CE5355" opacity="1.000000" stroke="none" 
	d="
M50.948776,164.032990 
	C50.638409,160.628937 50.142254,157.228973 50.067577,153.819748 
	C49.985508,150.073395 50.038013,146.406113 46.290310,144.166214 
	C42.217159,141.731827 38.627037,143.413910 35.086544,145.516037 
	C34.243618,146.016510 33.358322,146.445618 32.114872,146.922394 
	C34.362873,142.403061 38.700535,140.953339 43.475113,141.166183 
	C47.444317,141.343109 50.153919,143.790634 51.159794,148.612183 
	C51.029217,154.323410 50.988995,159.178207 50.948776,164.032990 
z"/>
<path fill="#F95E59" opacity="1.000000" stroke="none" 
	d="
M145.493225,231.028564 
	C144.929520,231.012100 144.740829,230.995804 144.271820,230.932159 
	C144.456711,230.276779 144.856644,229.601746 145.399155,229.073044 
	C147.155396,227.361542 148.963989,225.703751 150.142441,223.604355 
	C153.306870,222.449081 156.471283,221.293793 159.934692,220.460297 
	C159.804947,221.514099 159.376251,222.246109 158.947556,222.978119 
	C154.587784,225.661667 150.228012,228.345200 145.493225,231.028564 
z"/>
<path fill="#121424" opacity="1.000000" stroke="none" 
	d="
M73.677818,76.160507 
	C74.264709,76.017670 74.531250,76.049377 75.196976,76.133682 
	C74.443474,80.533333 73.290787,84.880402 71.697159,89.775452 
	C71.509499,92.547676 71.762787,94.771912 72.016068,96.996147 
	C72.106728,97.411606 72.197395,97.827057 72.323013,98.559799 
	C71.312057,97.652443 69.222580,96.256775 69.390678,95.231117 
	C70.430603,88.886154 71.978378,82.624428 73.677818,76.160507 
z"/>
<path fill="#0F121A" opacity="1.000000" stroke="none" 
	d="
M51.947701,81.182907 
	C52.633778,82.007545 53.684471,83.180786 53.661377,84.332497 
	C53.527454,91.010765 53.162014,97.685120 52.797920,104.356598 
	C52.769550,104.876480 52.151978,105.364197 51.443844,105.937424 
	C51.325062,97.845848 51.570690,89.683708 51.947701,81.182907 
z"/>
<path fill="#F9605B" opacity="1.000000" stroke="none" 
	d="
M42.983517,221.045547 
	C44.135281,221.107529 45.331856,220.992630 46.428894,221.270599 
	C48.343372,221.755676 50.196575,222.482590 53.013367,223.420410 
	C53.045441,224.136230 53.120907,225.820450 53.058281,227.829773 
	C51.844509,227.843979 50.768833,227.533066 49.281296,226.877258 
	C48.667103,226.192108 48.385059,226.102356 48.023304,226.263138 
	C47.853523,226.209869 47.683739,226.156586 47.134003,225.777588 
	C46.175606,225.429001 45.597160,225.406097 45.018719,225.383209 
	C45.018719,225.383209 44.995346,225.184586 44.977257,224.761322 
	C44.300621,223.240540 43.642071,222.143051 42.983517,221.045547 
z"/>
<path fill="#191926" opacity="1.000000" stroke="none" 
	d="
M177.521362,207.989655 
	C178.202286,208.329010 178.794846,209.002747 178.764282,209.032303 
	C174.005539,213.635468 178.500504,218.140839 178.869827,223.092316 
	C172.756485,218.778290 172.108917,212.936279 177.521362,207.989655 
z"/>
<path fill="#CC575B" opacity="1.000000" stroke="none" 
	d="
M163.067810,212.215424 
	C163.073883,205.998596 160.783798,200.830505 156.201599,196.590729 
	C154.934296,195.418121 154.068451,193.811646 153.287949,192.172379 
	C154.045975,192.245316 154.534470,192.550110 155.022949,192.854904 
	C156.126282,193.824219 157.229614,194.793533 158.747375,196.207184 
	C160.376144,198.208054 161.590469,199.764618 162.804810,201.321182 
	C163.280823,204.612625 163.756836,207.904053 163.926712,211.648056 
	C163.436325,212.138885 163.252060,212.177155 163.067810,212.215424 
z"/>
<path fill="#F7EFED" opacity="1.000000" stroke="none" 
	d="
M143.044983,167.789154 
	C142.779266,167.341324 142.513535,166.893478 142.261871,166.184052 
	C145.500092,166.138275 151.912598,172.646332 151.699722,175.673080 
	C151.664124,176.179398 150.599945,176.613373 149.435837,176.885956 
	C147.275177,174.090073 145.689728,171.489014 144.104294,168.887939 
	C144.104294,168.887939 144.026428,168.926361 144.035446,168.647491 
	C143.711304,168.175461 143.378143,167.982300 143.044983,167.789154 
z"/>
<path fill="#C65456" opacity="1.000000" stroke="none" 
	d="
M144.059906,169.273987 
	C145.689728,171.489014 147.275177,174.090073 149.046844,176.945221 
	C149.911133,180.861969 150.589218,184.524643 151.133652,188.605621 
	C148.671844,182.569275 146.343689,176.114655 144.059906,169.273987 
z"/>
<path fill="#F7F7F3" opacity="1.000000" stroke="none" 
	d="
M27.951958,209.546371 
	C28.905598,210.248230 29.853436,211.317444 31.011353,212.971283 
	C32.131760,214.393433 33.042095,215.230942 33.952423,216.068451 
	C33.952419,216.068451 33.975658,215.993164 33.958199,216.260986 
	C33.940735,216.528793 33.979408,217.005493 33.979408,217.005493 
	C32.755352,217.368240 30.822874,218.390808 30.435190,217.974564 
	C29.071630,216.510559 28.060650,214.624878 27.293938,212.745010 
	C26.994919,212.011871 27.698984,210.869644 27.951958,209.546371 
z"/>
<path fill="#141723" opacity="1.000000" stroke="none" 
	d="
M188.069305,190.350906 
	C188.656586,190.285156 189.091705,190.550659 189.763702,190.910553 
	C187.916153,194.643433 185.831696,198.281937 183.398743,201.960480 
	C184.672531,198.227737 186.294830,194.454941 188.069305,190.350906 
z"/>
<path fill="#171821" opacity="1.000000" stroke="none" 
	d="
M176.997162,56.251354 
	C177.023102,55.108143 177.053299,54.213844 177.127136,52.873894 
	C179.207535,55.172604 181.244263,57.916958 183.406494,60.961678 
	C181.874863,60.304821 180.217728,59.347603 178.171768,57.971504 
	C177.585495,57.284775 177.328384,57.099922 177.011597,56.998062 
	C177.011597,56.998062 177.001450,56.500267 176.997162,56.251354 
z"/>
<path fill="#171826" opacity="1.000000" stroke="none" 
	d="
M149.922852,54.952316 
	C150.965546,54.494209 152.495422,53.700970 153.460724,54.142372 
	C155.021637,54.856129 158.023041,55.145069 156.127289,58.687546 
	C153.919189,57.762177 152.037888,56.466808 149.922852,54.952316 
z"/>
<path fill="#F7F7F3" opacity="1.000000" stroke="none" 
	d="
M22.291674,201.896713 
	C23.611315,203.257355 24.526485,204.645172 25.775347,206.034470 
	C26.389645,206.144745 26.598082,206.333313 26.719028,206.816620 
	C24.450829,206.152435 22.197952,205.273270 19.945076,204.394104 
	C20.592451,203.570694 21.239826,202.747284 22.291674,201.896713 
z"/>
<path fill="#F6F4F1" opacity="1.000000" stroke="none" 
	d="
M85.886604,157.101791 
	C84.707176,158.476440 83.062218,159.806381 81.151520,161.255783 
	C79.507309,160.750626 78.128838,160.126022 76.750359,159.501419 
	C77.297714,158.686646 77.845070,157.871872 78.392426,157.057098 
	C80.735306,157.057098 83.078186,157.057098 85.886604,157.101791 
z"/>
<path fill="#F7F7F3" opacity="1.000000" stroke="none" 
	d="
M42.442249,223.764038 
	C40.689625,224.416916 38.937004,225.069778 36.190353,226.092941 
	C36.409855,223.965378 36.586193,222.256149 37.217937,220.279434 
	C38.407764,220.399414 39.142193,220.786896 39.876617,221.174362 
	C39.876621,221.174362 39.977848,221.127472 40.037926,221.412476 
	C40.879417,222.386337 41.660835,223.075195 42.442249,223.764038 
z"/>
<path fill="#F7EFED" opacity="1.000000" stroke="none" 
	d="
M163.051819,212.588394 
	C163.252060,212.177155 163.436325,212.138885 163.902679,212.088043 
	C165.124313,216.712891 163.229492,220.173370 159.309738,222.960754 
	C159.376251,222.246109 159.804947,221.514099 160.308685,220.467682 
	C161.267746,217.755981 162.151794,215.358673 163.051819,212.588394 
z"/>
<path fill="#CC6063" opacity="1.000000" stroke="none" 
	d="
M67.626099,176.234650 
	C68.007332,176.610062 68.009491,177.021149 68.020920,177.741241 
	C64.911827,180.008591 61.743584,180.958771 58.209854,178.214890 
	C61.090153,177.359146 64.168594,176.814758 67.626099,176.234650 
z"/>
<path fill="#CC6063" opacity="1.000000" stroke="none" 
	d="
M50.952564,164.361664 
	C50.988995,159.178207 51.029217,154.323410 51.110897,148.957977 
	C51.433319,153.992249 51.714279,159.537170 51.717575,165.544891 
	C51.439907,166.007690 50.971302,166.005997 50.971298,166.005997 
	C50.966316,165.567444 50.961334,165.128906 50.952564,164.361664 
z"/>
<path fill="#EDEFEE" opacity="1.000000" stroke="none" 
	d="
M72.353745,96.952827 
	C71.762787,94.771912 71.509499,92.547676 71.621964,90.160172 
	C72.222290,92.301102 72.456863,94.605301 72.353745,96.952827 
z"/>
<path fill="#F7EFED" opacity="1.000000" stroke="none" 
	d="
M162.961884,200.987961 
	C161.590469,199.764618 160.376144,198.208054 159.025848,196.352722 
	C159.976715,195.806534 161.063568,195.559143 163.118973,195.091263 
	C163.118973,197.146805 163.118973,198.900772 162.961884,200.987961 
z"/>
<path fill="#D05555" opacity="1.000000" stroke="none" 
	d="
M39.896606,220.808197 
	C39.142193,220.786896 38.407764,220.399414 37.369743,219.915894 
	C36.224384,218.960251 35.382626,218.100647 34.260139,217.123260 
	C33.979408,217.005493 33.940735,216.528793 33.931335,216.289825 
	C35.920158,217.514587 37.918377,218.978317 39.896606,220.808197 
z"/>
<path fill="#F5E8E5" opacity="1.000000" stroke="none" 
	d="
M128.044556,153.869415 
	C127.074875,153.924072 126.251167,153.677536 125.221916,153.179001 
	C126.860062,152.015976 128.703751,151.104965 130.547440,150.193939 
	C130.733963,150.588837 130.920502,150.983734 131.107040,151.378632 
	C130.134872,152.108490 129.162720,152.838364 128.044556,153.869415 
z"/>
<path fill="#D05555" opacity="1.000000" stroke="none" 
	d="
M42.719769,223.854828 
	C41.660835,223.075195 40.879417,222.386337 39.982368,221.407562 
	C40.646191,221.084259 41.425644,221.050873 42.594307,221.031525 
	C43.642071,222.143051 44.300621,223.240540 44.990257,224.662170 
	C44.346653,224.639420 43.671970,224.292526 42.719769,223.854828 
z"/>
<path fill="#F7F7F3" opacity="1.000000" stroke="none" 
	d="
M17.165422,188.769928 
	C17.826473,189.711670 18.311710,191.015152 18.808983,192.667358 
	C15.460173,193.018005 15.770922,191.288864 17.165422,188.769928 
z"/>
<path fill="#F7EFED" opacity="1.000000" stroke="none" 
	d="
M141.071182,164.223679 
	C140.026108,163.612015 138.962082,162.682358 137.878738,161.432281 
	C138.923691,162.043121 139.987961,162.974411 141.071182,164.223679 
z"/>
<path fill="#121424" opacity="1.000000" stroke="none" 
	d="
M74.927505,101.633469 
	C75.027397,102.086143 75.018791,102.274696 74.994476,102.746277 
	C74.232384,102.225975 73.486015,101.422638 72.865585,100.317398 
	C73.600693,100.466782 74.209854,100.918068 74.927505,101.633469 
z"/>
<path fill="#0F121A" opacity="1.000000" stroke="none" 
	d="
M51.751392,108.458344 
	C52.476143,109.315193 53.236618,110.545700 53.932014,112.229752 
	C53.173656,111.399536 52.480389,110.115768 51.751392,108.458344 
z"/>
<path fill="#F7EFED" opacity="1.000000" stroke="none" 
	d="
M155.021484,192.498016 
	C154.534470,192.550110 154.045975,192.245316 153.291611,191.804260 
	C152.719101,191.280289 152.412491,190.892563 152.050293,190.258896 
	C152.746445,190.009171 153.498138,190.005371 154.624924,190.000793 
	C155.000000,190.000000 154.997559,189.998199 154.997559,189.998199 
	C155.005051,190.712509 155.012543,191.426834 155.021484,192.498016 
z"/>
<path fill="#F7EFED" opacity="1.000000" stroke="none" 
	d="
M132.468521,158.079025 
	C132.157059,157.814743 132.134033,157.646103 132.149277,157.224945 
	C133.093216,157.448334 133.998901,157.924240 134.936066,158.740829 
	C134.230667,158.779236 133.493805,158.476944 132.468521,158.079025 
z"/>
<path fill="#181923" opacity="1.000000" stroke="none" 
	d="
M55.183300,112.705185 
	C55.868862,112.788414 56.584824,112.936005 57.300785,113.083595 
	C56.824966,113.232742 56.349144,113.381882 55.574982,113.247467 
	C55.276638,112.963913 55.213699,112.769554 55.183300,112.705185 
z"/>
<path fill="#F5E8E5" opacity="1.000000" stroke="none" 
	d="
M119.998299,151.308487 
	C119.503639,151.513443 118.949585,151.459717 118.198341,151.199417 
	C118.647072,151.011841 119.292984,151.030823 119.998299,151.308487 
z"/>
<path fill="#121321" opacity="1.000000" stroke="none" 
	d="
M53.556641,75.091164 
	C53.737740,75.573471 53.698326,76.253845 53.353035,76.971405 
	C53.143482,76.435463 53.239803,75.862350 53.556641,75.091164 
z"/>
<path fill="#CE5355" opacity="1.000000" stroke="none" 
	d="
M53.070633,171.648529 
	C52.728069,171.203903 52.369022,170.409592 52.051430,169.262314 
	C52.413303,169.705841 52.733723,170.502350 53.070633,171.648529 
z"/>
<path fill="#CC6063" opacity="1.000000" stroke="none" 
	d="
M56.909725,176.728607 
	C56.377171,176.533340 55.713146,176.074219 55.043869,175.277985 
	C55.618504,175.448853 56.198380,175.956818 56.909725,176.728607 
z"/>
<path fill="#CE5355" opacity="1.000000" stroke="none" 
	d="
M50.971760,166.355652 
	C50.971302,166.005997 51.439907,166.007690 51.674171,166.011444 
	C52.047318,166.750031 52.186195,167.484863 52.252960,168.588745 
	C51.777973,168.206940 51.375095,167.456116 50.971760,166.355652 
z"/>
<path fill="#CC6063" opacity="1.000000" stroke="none" 
	d="
M54.086121,173.657471 
	C53.747459,173.496078 53.395359,173.017776 53.053230,172.220673 
	C53.399696,172.381424 53.736187,172.860992 54.086121,173.657471 
z"/>
<path fill="#F7EFED" opacity="1.000000" stroke="none" 
	d="
M137.799408,160.862244 
	C137.351578,160.954086 136.803375,160.757187 136.146088,160.273224 
	C136.591019,160.181946 137.145020,160.377731 137.799408,160.862244 
z"/>
<path fill="#CE5355" opacity="1.000000" stroke="none" 
	d="
M30.294136,148.930527 
	C30.048462,148.912613 30.032305,148.717834 29.996937,148.230515 
	C30.181021,147.672562 30.384317,147.407181 30.848768,147.143524 
	C30.914497,147.681396 30.719072,148.217514 30.294136,148.930527 
z"/>
<path fill="#F7F7F3" opacity="1.000000" stroke="none" 
	d="
M45.220436,225.558502 
	C45.597160,225.406097 46.175606,225.429001 46.871719,225.728073 
	C46.466980,225.914108 45.944569,225.823959 45.220436,225.558502 
z"/>
<path fill="#CC6063" opacity="1.000000" stroke="none" 
	d="
M54.999443,174.715485 
	C54.774406,174.791977 54.486015,174.605804 54.118736,174.166489 
	C54.338596,174.093170 54.637341,174.272995 54.999443,174.715485 
z"/>
<path fill="#CC6063" opacity="1.000000" stroke="none" 
	d="
M58.004166,177.709137 
	C57.792912,177.793884 57.494678,177.622314 57.096153,177.205994 
	C57.302967,177.125122 57.610081,177.288986 58.004166,177.709137 
z"/>
<path fill="#F7EFED" opacity="1.000000" stroke="none" 
	d="
M151.943939,189.810135 
	C151.607361,190.002930 151.347794,189.824646 151.301193,189.240143 
	C151.630035,189.154572 151.798965,189.356277 151.943939,189.810135 
z"/>
<path fill="#F7F7F3" opacity="1.000000" stroke="none" 
	d="
M48.149212,226.438812 
	C48.385059,226.102356 48.667103,226.192108 48.955750,226.759598 
	C48.744370,226.949310 48.488716,226.825195 48.149212,226.438812 
z"/>
<path fill="#F7EFED" opacity="1.000000" stroke="none" 
	d="
M155.000885,190.001221 
	C155.092682,189.966187 155.183578,189.929932 155.136017,189.945938 
	C154.997559,189.998199 155.000000,190.000000 155.000885,190.001221 
z"/>
<path fill="#D05555" opacity="1.000000" stroke="none" 
	d="
M33.955681,215.728943 
	C33.042095,215.230942 32.131760,214.393433 31.189165,213.239670 
	C32.090912,213.745438 33.024925,214.567459 33.955681,215.728943 
z"/>
<path fill="#C65456" opacity="1.000000" stroke="none" 
	d="
M143.123322,168.062073 
	C143.378143,167.982300 143.711304,168.175461 144.076843,168.660583 
	C143.806686,168.746704 143.504181,168.540848 143.123322,168.062073 
z"/>
<path fill="#171727" opacity="1.000000" stroke="none" 
	d="
M177.018097,57.228378 
	C177.328384,57.099922 177.585495,57.284775 177.890945,57.767441 
	C177.674179,57.807739 177.349396,57.633217 177.018097,57.228378 
z"/>
</svg>