<svg id="svg" version="1.1" xmlns="http://www.w3.org/2000/svg" xmlns:xlink="http://www.w3.org/1999/xlink" width="400" height="400" viewBox="0, 0, 400,400"><g id="svgg"><path id="path0" d="M0.000 200.000 L 0.000 400.000 200.000 400.000 L 400.000 400.000 400.000 200.000 L 400.000 0.000 200.000 0.000 L 0.000 0.000 0.000 200.000 M111.040 156.924 C 115.853 158.596,118.444 160.242,122.276 164.063 C 130.674 172.434,133.049 185.191,126.034 184.250 C 123.844 183.956,122.902 182.770,121.502 178.545 C 114.803 158.332,86.659 159.061,83.148 179.538 C 82.215 184.977,81.247 184.467,98.585 187.673 C 125.209 192.596,129.149 194.383,134.086 203.780 C 139.667 214.399,134.727 233.203,126.357 233.203 C 122.017 233.203,121.423 228.650,125.234 224.609 C 130.149 219.399,129.495 209.050,123.923 203.837 C 120.311 200.459,120.502 200.518,101.367 196.908 C 80.031 192.882,79.379 192.736,77.651 191.593 C 75.308 190.043,74.226 187.387,74.229 183.203 C 74.247 163.984,92.943 150.636,111.040 156.924 M274.605 172.459 C 276.246 173.307,276.953 174.544,276.953 176.563 C 276.953 181.590,270.130 183.072,267.792 178.552 C 265.615 174.342,270.242 170.203,274.605 172.459 M173.071 174.758 C 178.450 175.383,183.351 179.929,184.176 185.059 L 184.444 186.719 180.936 186.719 C 177.527 186.719,177.422 186.691,177.185 185.749 C 175.911 180.675,166.447 179.523,163.655 184.103 C 161.404 187.795,163.708 190.064,172.461 192.775 C 182.159 195.778,185.553 199.062,185.543 205.433 C 185.532 213.041,180.326 216.992,170.313 216.992 C 160.465 216.992,154.701 213.143,154.540 206.460 L 154.492 204.492 158.057 204.367 L 161.621 204.242 161.876 205.597 C 163.191 212.609,177.734 212.374,177.734 205.341 C 177.734 202.020,176.214 201.004,167.461 198.477 C 158.217 195.808,155.073 192.778,155.082 186.544 C 155.091 180.280,160.015 175.344,166.979 174.621 C 169.362 174.373,169.859 174.384,173.071 174.758 M200.697 180.957 L 200.808 185.156 204.310 185.156 L 207.813 185.156 207.813 188.281 L 207.813 191.406 204.297 191.406 L 200.781 191.406 200.781 200.026 C 200.781 210.566,200.673 210.267,204.426 210.094 L 207.227 209.965 207.466 211.916 C 207.598 212.989,207.828 214.421,207.977 215.099 C 208.325 216.679,207.021 217.188,202.474 217.246 C 194.790 217.346,193.359 214.721,193.359 200.524 L 193.359 191.406 190.625 191.406 L 187.891 191.406 187.891 188.477 L 187.891 185.547 190.625 185.547 L 193.359 185.547 193.359 181.040 L 193.359 176.533 196.973 176.645 L 200.586 176.758 200.697 180.957 M231.813 185.934 C 237.574 188.160,241.034 194.786,240.532 202.634 C 239.267 222.413,211.548 222.326,210.262 202.539 C 209.418 189.541,220.014 181.377,231.813 185.934 M264.453 188.231 L 264.453 191.696 261.383 191.874 C 254.496 192.273,253.753 193.710,253.589 206.934 L 253.467 216.797 249.780 216.797 L 246.094 216.797 246.094 200.977 L 246.094 185.156 249.609 185.156 L 253.125 185.156 253.125 187.751 L 253.125 190.347 254.478 188.575 C 256.307 186.179,259.167 184.766,262.186 184.766 L 264.453 184.766 264.453 188.231 M331.981 185.492 C 334.831 186.575,336.570 188.095,337.783 190.566 L 338.867 192.773 338.867 204.688 L 338.867 216.602 335.449 216.714 L 332.031 216.827 332.031 214.978 L 332.031 213.128 330.762 214.333 C 324.197 220.562,312.084 216.563,312.118 208.177 C 312.143 201.953,315.664 199.255,325.136 198.201 C 331.147 197.532,331.641 197.324,331.641 195.455 C 331.641 190.952,323.843 189.709,320.640 193.701 L 319.727 194.839 316.505 194.361 C 312.531 193.772,312.649 193.911,313.977 191.368 C 316.776 186.011,325.690 183.101,331.981 185.492 M275.781 200.977 L 275.781 216.797 272.266 216.797 C 270.332 216.797,268.732 216.665,268.710 216.504 C 268.564 215.447,268.512 186.036,268.655 185.645 C 268.780 185.304,269.884 185.156,272.307 185.156 L 275.781 185.156 275.781 200.977 M287.844 186.816 C 288.232 187.729,290.017 192.917,291.810 198.344 C 293.603 203.771,295.206 208.075,295.373 207.908 C 295.540 207.741,297.282 202.949,299.243 197.259 C 301.205 191.569,302.965 186.519,303.154 186.035 C 303.492 185.173,309.886 184.625,310.653 185.392 C 310.956 185.695,308.479 192.774,303.424 206.055 L 299.409 216.602 295.135 216.602 L 290.861 216.602 288.345 209.766 C 286.962 206.006,284.384 199.063,282.618 194.336 C 280.851 189.609,279.479 185.610,279.569 185.449 C 279.660 185.288,281.399 185.156,283.435 185.156 L 287.137 185.156 287.844 186.816 M222.018 192.133 C 216.615 195.526,216.462 206.541,221.772 209.823 C 229.101 214.352,236.094 204.146,231.825 195.150 C 230.249 191.827,225.051 190.229,222.018 192.133 M73.701 201.327 C 74.749 202.229,74.798 202.435,75.010 206.893 C 75.486 216.913,78.656 217.696,85.455 209.474 C 93.480 199.768,109.663 203.658,113.287 216.164 C 114.216 219.371,114.545 219.976,116.318 221.750 C 121.349 226.780,118.420 234.746,111.098 235.945 C 106.375 236.719,81.361 236.425,77.963 235.555 C 66.982 232.747,59.329 221.285,61.856 211.432 C 63.896 203.481,70.076 198.208,73.701 201.327 M330.859 202.975 C 330.537 203.058,328.345 203.373,325.988 203.675 C 320.978 204.316,319.922 205.044,319.922 207.852 C 319.922 213.007,328.582 212.617,331.288 207.340 C 332.009 205.933,332.330 202.688,331.738 202.780 C 331.577 202.805,331.182 202.893,330.859 202.975 " stroke="none" fill="#fbfbfb" fill-rule="evenodd"></path><path id="path1" d="M97.313 155.909 C 84.209 158.086,74.596 169.410,74.475 182.813 C 74.394 191.835,74.016 191.644,102.344 196.869 C 116.817 199.539,118.017 199.813,120.333 200.987 C 129.283 205.522,131.679 217.847,125.028 225.136 C 122.187 228.250,121.942 229.832,123.984 231.875 C 126.870 234.760,130.679 232.469,133.789 225.977 C 139.605 213.838,135.649 200.235,124.595 194.369 C 120.267 192.072,116.512 191.177,93.359 186.922 C 82.320 184.893,82.813 185.149,82.813 181.448 C 82.813 171.961,91.824 163.672,102.137 163.672 C 111.670 163.672,118.694 169.007,121.717 178.541 C 122.995 182.574,124.160 183.984,126.213 183.984 C 129.968 183.984,130.942 181.399,129.252 175.920 C 125.012 162.177,111.301 153.586,97.313 155.909 M270.070 172.436 C 265.632 174.368,267.290 180.859,272.220 180.859 C 277.426 180.859,278.731 174.436,273.938 172.407 C 272.388 171.751,271.632 171.756,270.070 172.436 M165.039 175.133 C 157.625 177.071,153.731 183.058,155.633 189.599 C 156.928 194.054,159.511 195.872,168.240 198.473 C 176.173 200.836,178.125 202.235,178.125 205.558 C 178.125 212.649,163.763 212.836,161.646 205.772 C 161.217 204.339,161.101 204.245,160.035 204.458 C 159.404 204.584,157.852 204.688,156.587 204.688 L 154.288 204.688 154.524 206.348 C 156.689 221.533,185.157 220.721,185.324 205.469 C 185.393 199.141,181.985 195.897,172.060 192.845 C 164.215 190.433,162.559 189.075,162.830 185.282 C 163.222 179.785,174.667 179.653,177.131 185.118 L 177.853 186.719 180.972 186.719 L 184.091 186.719 183.849 184.960 C 182.854 177.701,173.639 172.887,165.039 175.133 M193.385 181.348 L 193.452 185.742 190.769 185.742 L 188.086 185.742 187.970 188.379 L 187.855 191.016 190.572 191.016 L 193.289 191.016 193.461 200.684 C 193.652 211.433,193.857 212.542,196.085 214.878 C 198.115 217.006,201.951 217.759,205.988 216.822 C 207.991 216.357,207.944 216.479,207.405 213.137 L 206.930 210.195 204.539 210.416 C 200.613 210.780,200.612 210.776,200.462 199.960 L 200.338 191.016 203.978 191.016 L 207.617 191.016 207.617 188.295 L 207.617 185.574 204.102 185.463 L 200.586 185.352 200.475 181.152 L 200.364 176.953 196.841 176.953 L 193.317 176.953 193.385 181.348 M222.313 185.206 C 208.741 187.460,205.853 209.245,218.284 215.587 C 222.252 217.611,228.616 217.556,232.746 215.463 C 243.046 210.244,242.963 191.728,232.617 186.585 C 229.389 184.980,226.223 184.556,222.313 185.206 M259.214 185.409 C 257.827 185.835,256.717 186.590,255.210 188.134 L 253.125 190.269 253.125 187.908 L 253.125 185.547 249.609 185.547 L 246.094 185.547 246.094 200.977 L 246.094 216.406 249.574 216.406 L 253.054 216.406 253.187 206.934 C 253.371 193.880,254.471 191.816,261.281 191.752 L 264.063 191.726 264.063 188.246 L 264.063 184.766 262.598 184.793 C 261.792 184.808,260.269 185.085,259.214 185.409 M323.510 185.179 C 319.179 185.948,315.179 188.792,313.806 192.078 C 313.097 193.776,312.936 193.655,316.595 194.164 L 319.660 194.591 320.565 193.434 C 323.453 189.744,330.951 190.500,331.845 194.572 C 332.435 197.257,331.427 197.843,325.195 198.441 C 316.469 199.278,313.534 201.155,312.516 206.548 C 310.813 215.570,323.620 220.874,330.803 214.123 C 332.484 212.543,332.520 212.556,332.206 214.648 L 331.943 216.406 335.307 216.406 L 338.672 216.406 338.672 204.897 C 338.672 194.228,338.613 193.232,337.866 191.235 C 336.080 186.461,330.215 183.987,323.510 185.179 M268.750 200.977 L 268.750 216.406 272.266 216.406 L 275.781 216.406 275.781 200.977 L 275.781 185.547 272.266 185.547 L 268.750 185.547 268.750 200.977 M279.688 185.681 C 279.688 185.770,281.251 190.039,283.161 195.167 C 285.071 200.296,287.601 207.129,288.781 210.352 L 290.928 216.211 295.123 216.211 L 299.318 216.211 302.221 208.594 C 306.764 196.671,310.547 186.372,310.547 185.925 C 310.547 185.664,309.270 185.558,306.979 185.630 L 303.412 185.742 301.718 190.820 C 298.673 199.945,295.531 208.594,295.260 208.594 C 295.114 208.594,293.264 203.452,291.150 197.168 L 287.305 185.742 283.496 185.630 C 281.401 185.569,279.688 185.591,279.688 185.681 M227.911 191.449 C 231.461 192.434,233.406 196.321,233.139 201.896 C 232.556 214.050,218.606 214.302,217.689 202.176 C 217.108 194.488,221.658 189.713,227.911 191.449 M332.158 204.849 C 332.011 208.944,329.122 211.372,324.396 211.372 C 320.116 211.372,318.473 209.337,320.063 206.004 C 320.860 204.331,321.579 204.020,326.172 203.353 C 332.064 202.498,332.240 202.543,332.158 204.849 " stroke="none" fill="#14172f" fill-rule="evenodd"></path><path id="path2" d="M70.022 200.659 C 68.306 201.004,64.931 204.598,63.382 207.729 C 58.278 218.053,65.219 231.794,77.317 235.319 C 80.083 236.125,110.009 236.244,112.650 235.460 C 118.812 233.630,120.570 226.324,115.973 221.646 C 114.273 219.917,113.926 219.279,113.284 216.710 C 109.752 202.577,93.018 199.834,83.694 211.860 C 79.046 217.854,75.170 215.680,74.906 206.930 C 74.747 201.632,73.452 199.970,70.022 200.659 " stroke="none" fill="#f95453" fill-rule="evenodd"></path><path id="path3" d="M195.605 176.849 C 196.519 176.931,198.013 176.931,198.926 176.849 C 199.839 176.766,199.092 176.699,197.266 176.699 C 195.439 176.699,194.692 176.766,195.605 176.849 M125.879 184.254 C 126.255 184.352,126.870 184.352,127.246 184.254 C 127.622 184.155,127.314 184.075,126.563 184.075 C 125.811 184.075,125.503 184.155,125.879 184.254 M203.800 185.438 C 204.493 185.524,205.724 185.526,206.534 185.441 C 207.345 185.357,206.777 185.286,205.273 185.284 C 203.770 185.283,203.106 185.352,203.800 185.438 M270.801 185.441 C 271.606 185.525,272.925 185.525,273.730 185.441 C 274.536 185.357,273.877 185.288,272.266 185.288 C 270.654 185.288,269.995 185.357,270.801 185.441 M281.738 185.443 C 282.759 185.524,284.429 185.524,285.449 185.443 C 286.470 185.363,285.635 185.297,283.594 185.297 C 281.553 185.297,280.718 185.363,281.738 185.443 M304.492 185.404 C 307.254 185.693,310.851 185.719,310.683 185.449 C 310.583 185.288,308.885 185.184,306.911 185.219 C 304.936 185.253,303.848 185.336,304.492 185.404 M264.153 188.672 C 264.153 189.424,264.234 189.731,264.332 189.355 C 264.430 188.979,264.430 188.364,264.332 187.988 C 264.234 187.612,264.153 187.920,264.153 188.672 M325.293 191.291 C 325.776 191.384,326.567 191.384,327.051 191.291 C 327.534 191.198,327.139 191.122,326.172 191.122 C 325.205 191.122,324.810 191.198,325.293 191.291 M268.522 198.828 C 268.522 202.803,268.580 204.429,268.650 202.441 C 268.721 200.454,268.721 197.202,268.650 195.215 C 268.580 193.228,268.522 194.854,268.522 198.828 M338.763 205.161 L 338.672 216.376 335.254 216.506 L 331.836 216.636 335.266 216.717 C 339.491 216.815,339.098 218.075,338.965 204.878 L 338.854 193.945 338.763 205.161 M217.685 200.781 C 217.685 201.748,217.761 202.144,217.854 201.660 C 217.947 201.177,217.947 200.386,217.854 199.902 C 217.761 199.419,217.685 199.814,217.685 200.781 M66.193 203.223 L 64.648 204.883 66.309 203.339 C 67.853 201.903,68.148 201.563,67.853 201.563 C 67.789 201.563,67.042 202.310,66.193 203.223 M96.973 204.176 C 97.349 204.274,97.964 204.274,98.340 204.176 C 98.716 204.077,98.408 203.997,97.656 203.997 C 96.904 203.997,96.597 204.077,96.973 204.176 M155.957 204.566 C 156.333 204.664,156.948 204.664,157.324 204.566 C 157.700 204.468,157.393 204.388,156.641 204.388 C 155.889 204.388,155.581 204.468,155.957 204.566 M85.916 208.887 L 84.570 210.352 86.035 209.005 C 87.399 207.752,87.680 207.422,87.381 207.422 C 87.316 207.422,86.657 208.081,85.916 208.887 M169.238 210.827 C 169.829 210.916,170.796 210.916,171.387 210.827 C 171.978 210.737,171.494 210.664,170.313 210.664 C 169.131 210.664,168.647 210.737,169.238 210.827 M61.459 215.625 C 61.459 217.236,61.528 217.896,61.613 217.090 C 61.697 216.284,61.697 214.966,61.613 214.160 C 61.528 213.354,61.459 214.014,61.459 215.625 M290.970 216.518 C 291.140 216.687,293.109 216.774,295.346 216.711 L 299.414 216.597 295.037 216.404 C 292.630 216.298,290.800 216.349,290.970 216.518 M247.962 216.695 C 249.097 216.774,250.855 216.773,251.869 216.693 C 252.882 216.613,251.953 216.548,249.805 216.549 C 247.656 216.550,246.827 216.616,247.962 216.695 M270.410 216.693 C 271.431 216.774,273.101 216.774,274.121 216.693 C 275.142 216.613,274.307 216.547,272.266 216.547 C 270.225 216.547,269.390 216.613,270.410 216.693 M115.234 220.825 C 115.234 220.893,115.806 221.464,116.504 222.095 L 117.773 223.242 116.626 221.973 C 115.557 220.789,115.234 220.524,115.234 220.825 M87.819 236.230 C 91.969 236.293,98.648 236.293,102.662 236.230 C 106.677 236.166,103.281 236.115,95.117 236.115 C 86.953 236.115,83.669 236.167,87.819 236.230 " stroke="none" fill="#999ba0" fill-rule="evenodd"></path><path id="path4" d="M200.537 181.055 C 200.538 183.418,200.602 184.334,200.680 183.091 C 200.757 181.848,200.757 179.914,200.678 178.794 C 200.599 177.674,200.536 178.691,200.537 181.055 M169.238 181.129 C 169.614 181.227,170.229 181.227,170.605 181.129 C 170.981 181.030,170.674 180.950,169.922 180.950 C 169.170 180.950,168.862 181.030,169.238 181.129 M271.582 181.129 C 271.958 181.227,272.573 181.227,272.949 181.129 C 273.325 181.030,273.018 180.950,272.266 180.950 C 271.514 180.950,271.206 181.030,271.582 181.129 M191.992 185.547 L 190.430 185.827 191.871 185.882 C 192.664 185.913,193.422 185.762,193.555 185.547 C 193.687 185.332,193.742 185.181,193.675 185.212 C 193.609 185.242,192.852 185.393,191.992 185.547 M264.153 186.328 C 264.153 187.080,264.234 187.388,264.332 187.012 C 264.430 186.636,264.430 186.021,264.332 185.645 C 264.234 185.269,264.153 185.576,264.153 186.328 M207.539 188.281 C 207.539 189.463,207.612 189.946,207.702 189.355 C 207.791 188.765,207.791 187.798,207.702 187.207 C 207.612 186.616,207.539 187.100,207.539 188.281 M189.160 191.300 C 189.966 191.384,191.284 191.384,192.090 191.300 C 192.896 191.216,192.236 191.147,190.625 191.147 C 189.014 191.147,188.354 191.216,189.160 191.300 M202.637 191.302 C 203.550 191.384,205.044 191.384,205.957 191.302 C 206.870 191.219,206.123 191.152,204.297 191.152 C 202.471 191.152,201.724 191.219,202.637 191.302 M200.556 199.805 C 200.556 204.316,200.613 206.109,200.682 203.787 C 200.752 201.466,200.751 197.775,200.682 195.584 C 200.612 193.394,200.556 195.293,200.556 199.805 M210.277 201.367 C 210.279 202.656,210.352 203.137,210.439 202.434 C 210.526 201.732,210.524 200.678,210.435 200.091 C 210.346 199.504,210.275 200.078,210.277 201.367 M253.292 207.813 C 253.292 212.646,253.348 214.624,253.417 212.207 C 253.485 209.790,253.485 205.835,253.417 203.418 C 253.348 201.001,253.292 202.979,253.292 207.813 M332.122 204.297 C 332.122 205.049,332.202 205.356,332.301 204.980 C 332.399 204.604,332.399 203.989,332.301 203.613 C 332.202 203.237,332.122 203.545,332.122 204.297 M202.837 210.437 C 203.431 210.526,204.310 210.524,204.791 210.431 C 205.271 210.339,204.785 210.265,203.711 210.268 C 202.637 210.271,202.244 210.347,202.837 210.437 " stroke="none" fill="#747c80" fill-rule="evenodd"></path></g></svg>