<svg xmlns="http://www.w3.org/2000/svg" width="500" height="154" viewBox="0 0 500 154" version="1.1"><path d="M 306.500 12.954 C 297.407 16.715, 297.164 29.492, 306.098 34.050 C 310.697 36.396, 313.163 36.491, 317.393 34.484 C 323.342 31.661, 325.693 24.175, 322.544 18.085 C 320.057 13.276, 311.972 10.691, 306.500 12.954 M 33.879 21.246 C 19.606 26.246, 11.986 36.221, 12.010 49.876 C 12.028 60.286, 18.290 69.629, 28.474 74.442 C 31.238 75.748, 39.800 78.696, 47.500 80.993 C 62.707 85.530, 67.350 88.199, 69.663 93.735 C 72.095 99.556, 69.260 106.263, 62.998 109.501 C 58.735 111.705, 50.144 112.379, 43.607 111.022 C 36.443 109.535, 30.386 104.574, 29.415 99.398 C 29.062 97.517, 28.355 95.719, 27.843 95.403 C 27.331 95.087, 23.064 95.148, 18.362 95.540 L 9.811 96.252 10.501 100.876 C 11.467 107.356, 13.232 111.144, 17.468 115.833 C 25.680 124.922, 36.369 128.424, 54 127.800 C 66.773 127.349, 73.273 125.211, 80.099 119.218 C 91.816 108.930, 93.048 91.153, 82.847 79.564 C 77.288 73.249, 72.782 70.894, 56.214 65.645 C 36.524 59.407, 32 56.331, 32 49.182 C 32 41.118, 39.029 36, 50.104 36 C 59.111 36, 64.618 38.869, 67.858 45.250 L 70.270 50 78.702 50 C 86.254 50, 87.083 49.817, 86.642 48.250 C 86.371 47.288, 85.847 44.925, 85.477 43 C 83.868 34.628, 76.788 26.624, 67.051 22.166 C 62.495 20.080, 59.644 19.567, 51.005 19.278 C 42.009 18.978, 39.549 19.260, 33.879 21.246 M 110.698 24.636 C 110.314 25.019, 110 30.208, 110 36.167 L 110 47 103 47 L 96 47 96 54.500 L 96 62 102.923 62 L 109.846 62 110.173 86.750 C 110.471 109.321, 110.683 111.896, 112.583 116 C 115.193 121.638, 120.858 126.695, 125.549 127.575 C 130.261 128.459, 144.804 127.596, 146.041 126.359 C 146.613 125.787, 146.742 122.250, 146.357 117.696 L 145.707 110 138.476 110 C 133.733 110, 130.871 109.549, 130.157 108.689 C 129.451 107.838, 129.032 99.382, 128.963 84.579 L 128.857 61.779 137.678 61.639 L 146.500 61.500 146.794 54.250 L 147.088 47 140.294 46.844 C 136.557 46.759, 132.488 46.776, 131.250 46.882 C 129.041 47.072, 129 46.875, 129 36.038 L 129 25 121.582 25 C 117.502 25, 113.541 24.761, 112.780 24.469 C 112.018 24.177, 111.082 24.252, 110.698 24.636 M 181.024 46.536 C 165.819 50.808, 156.579 61.938, 153.900 79.207 C 150.379 101.901, 161.115 121.079, 180.409 126.557 C 188.154 128.756, 200.345 128.108, 208.221 125.079 C 223.754 119.104, 233.138 99.872, 230.235 79.959 C 227.147 58.768, 214.616 46.546, 194.865 45.458 C 189.116 45.141, 184.787 45.478, 181.024 46.536 M 276.462 47.342 C 273.645 48.667, 269.567 51.821, 267.212 54.497 L 263 59.282 263 53.141 C 263 48.931, 262.607 46.979, 261.750 46.933 C 261.063 46.896, 257.125 46.784, 253 46.683 L 245.500 46.500 245.239 86.250 L 244.977 126 254.489 126 L 264 126 264.022 101.750 C 264.041 80.387, 264.263 77.019, 265.880 73.459 C 269.383 65.746, 273.833 63.481, 286.920 62.748 L 291.340 62.500 291.420 54 L 291.500 45.500 286.500 45.236 C 282.905 45.046, 280.085 45.638, 276.462 47.342 M 440.251 46.487 C 432.976 48.526, 428.123 51.179, 423.890 55.429 C 420.213 59.121, 416.199 66.532, 417.287 67.621 C 417.618 67.951, 421.287 68.711, 425.441 69.309 L 432.994 70.397 436.285 66.804 C 443.856 58.539, 459.827 59.556, 463.582 68.541 C 466.743 76.108, 464.262 77.906, 448.237 79.662 C 432.779 81.356, 429.780 82.120, 423.879 85.862 C 417.608 89.839, 414.523 96.166, 414.510 105.078 C 414.496 114.276, 418.172 120.245, 426.463 124.485 C 431.745 127.186, 433.303 127.499, 441.429 127.493 C 451.252 127.485, 456.404 125.681, 462.250 120.203 L 465 117.626 465 121.813 L 465 126 473.500 126 L 482 126 482 96.366 C 482 76.545, 481.611 65.432, 480.824 62.807 C 479.131 57.157, 473.008 50.685, 466.788 47.973 C 460.092 45.053, 447.818 44.366, 440.251 46.487 M 303.415 46.917 C 303.187 47.146, 303 65.033, 303 86.667 L 303 126 312.011 126 L 321.023 126 320.761 86.434 L 320.500 46.867 312.165 46.684 C 307.581 46.583, 303.643 46.688, 303.415 46.917 M 331.043 47.500 C 331.068 48.050, 337.487 65.825, 345.305 87 L 359.521 125.500 370.511 125.763 L 381.500 126.025 388.409 107.763 C 398.261 81.724, 408.731 52.968, 409.532 49.750 L 410.217 47 400.688 47 L 391.159 47 390.448 50.250 C 389.775 53.321, 374.617 97.074, 371.998 103.500 C 370.835 106.356, 370.296 105.073, 360.795 76.814 L 350.815 47.129 340.905 46.814 C 334.735 46.619, 331.013 46.877, 331.043 47.500 M 187.365 61.931 C 182.195 63.200, 178.284 66.720, 175.325 72.768 C 172.987 77.547, 172.537 79.724, 172.590 85.994 C 172.671 95.680, 174.149 100.645, 178.442 105.661 C 184.228 112.420, 194.597 113.885, 202.424 109.047 C 212.873 102.589, 215.191 78.511, 206.372 68.031 C 201.910 62.728, 194.200 60.254, 187.365 61.931 M 460.916 91.417 C 460.687 91.647, 456.078 92.327, 450.675 92.930 C 439.185 94.211, 435.630 95.753, 434.109 100.116 C 432.714 104.118, 434.260 110.533, 436.968 111.983 C 439.959 113.584, 451.748 113.214, 455.572 111.399 C 460.635 108.996, 465 101.788, 465 95.829 C 465 91.813, 464.691 91, 463.167 91 C 462.158 91, 461.146 91.188, 460.916 91.417" stroke="none" fill="#161930" fill-rule="evenodd"/><path d="M -0 77.002 L -0 154.004 250.250 153.752 L 500.500 153.500 500.756 76.750 L 501.012 0 250.506 0 L 0 0 -0 77.002 M 0.476 77.500 C 0.476 119.850, 0.599 137.029, 0.750 115.676 C 0.900 94.323, 0.900 59.673, 0.750 38.676 C 0.599 17.679, 0.476 35.150, 0.476 77.500 M 306.500 12.954 C 297.407 16.715, 297.164 29.492, 306.098 34.050 C 310.697 36.396, 313.163 36.491, 317.393 34.484 C 323.342 31.661, 325.693 24.175, 322.544 18.085 C 320.057 13.276, 311.972 10.691, 306.500 12.954 M 33.879 21.246 C 19.606 26.246, 11.986 36.221, 12.010 49.876 C 12.028 60.286, 18.290 69.629, 28.474 74.442 C 31.238 75.748, 39.800 78.696, 47.500 80.993 C 62.707 85.530, 67.350 88.199, 69.663 93.735 C 72.095 99.556, 69.260 106.263, 62.998 109.501 C 58.735 111.705, 50.144 112.379, 43.607 111.022 C 36.443 109.535, 30.386 104.574, 29.415 99.398 C 29.062 97.517, 28.355 95.719, 27.843 95.403 C 27.331 95.087, 23.064 95.148, 18.362 95.540 L 9.811 96.252 10.501 100.876 C 11.467 107.356, 13.232 111.144, 17.468 115.833 C 25.680 124.922, 36.369 128.424, 54 127.800 C 66.773 127.349, 73.273 125.211, 80.099 119.218 C 91.816 108.930, 93.048 91.153, 82.847 79.564 C 77.288 73.249, 72.782 70.894, 56.214 65.645 C 36.524 59.407, 32 56.331, 32 49.182 C 32 41.118, 39.029 36, 50.104 36 C 59.111 36, 64.618 38.869, 67.858 45.250 L 70.270 50 78.702 50 C 86.254 50, 87.083 49.817, 86.642 48.250 C 86.371 47.288, 85.847 44.925, 85.477 43 C 83.868 34.628, 76.788 26.624, 67.051 22.166 C 62.495 20.080, 59.644 19.567, 51.005 19.278 C 42.009 18.978, 39.549 19.260, 33.879 21.246 M 110.698 24.636 C 110.314 25.019, 110 30.208, 110 36.167 L 110 47 103 47 L 96 47 96 54.500 L 96 62 102.923 62 L 109.846 62 110.173 86.750 C 110.471 109.321, 110.683 111.896, 112.583 116 C 115.193 121.638, 120.858 126.695, 125.549 127.575 C 130.261 128.459, 144.804 127.596, 146.041 126.359 C 146.613 125.787, 146.742 122.250, 146.357 117.696 L 145.707 110 138.476 110 C 133.733 110, 130.871 109.549, 130.157 108.689 C 129.451 107.838, 129.032 99.382, 128.963 84.579 L 128.857 61.779 137.678 61.639 L 146.500 61.500 146.794 54.250 L 147.088 47 140.294 46.844 C 136.557 46.759, 132.488 46.776, 131.250 46.882 C 129.041 47.072, 129 46.875, 129 36.038 L 129 25 121.582 25 C 117.502 25, 113.541 24.761, 112.780 24.469 C 112.018 24.177, 111.082 24.252, 110.698 24.636 M 181.024 46.536 C 165.819 50.808, 156.579 61.938, 153.900 79.207 C 150.379 101.901, 161.115 121.079, 180.409 126.557 C 188.154 128.756, 200.345 128.108, 208.221 125.079 C 223.754 119.104, 233.138 99.872, 230.235 79.959 C 227.147 58.768, 214.616 46.546, 194.865 45.458 C 189.116 45.141, 184.787 45.478, 181.024 46.536 M 276.462 47.342 C 273.645 48.667, 269.567 51.821, 267.212 54.497 L 263 59.282 263 53.141 C 263 48.931, 262.607 46.979, 261.750 46.933 C 261.063 46.896, 257.125 46.784, 253 46.683 L 245.500 46.500 245.239 86.250 L 244.977 126 254.489 126 L 264 126 264.022 101.750 C 264.041 80.387, 264.263 77.019, 265.880 73.459 C 269.383 65.746, 273.833 63.481, 286.920 62.748 L 291.340 62.500 291.420 54 L 291.500 45.500 286.500 45.236 C 282.905 45.046, 280.085 45.638, 276.462 47.342 M 440.251 46.487 C 432.976 48.526, 428.123 51.179, 423.890 55.429 C 420.213 59.121, 416.199 66.532, 417.287 67.621 C 417.618 67.951, 421.287 68.711, 425.441 69.309 L 432.994 70.397 436.285 66.804 C 443.856 58.539, 459.827 59.556, 463.582 68.541 C 466.743 76.108, 464.262 77.906, 448.237 79.662 C 432.779 81.356, 429.780 82.120, 423.879 85.862 C 417.608 89.839, 414.523 96.166, 414.510 105.078 C 414.496 114.276, 418.172 120.245, 426.463 124.485 C 431.745 127.186, 433.303 127.499, 441.429 127.493 C 451.252 127.485, 456.404 125.681, 462.250 120.203 L 465 117.626 465 121.813 L 465 126 473.500 126 L 482 126 482 96.366 C 482 76.545, 481.611 65.432, 480.824 62.807 C 479.131 57.157, 473.008 50.685, 466.788 47.973 C 460.092 45.053, 447.818 44.366, 440.251 46.487 M 303.415 46.917 C 303.187 47.146, 303 65.033, 303 86.667 L 303 126 312.011 126 L 321.023 126 320.761 86.434 L 320.500 46.867 312.165 46.684 C 307.581 46.583, 303.643 46.688, 303.415 46.917 M 331.043 47.500 C 331.068 48.050, 337.487 65.825, 345.305 87 L 359.521 125.500 370.511 125.763 L 381.500 126.025 388.409 107.763 C 398.261 81.724, 408.731 52.968, 409.532 49.750 L 410.217 47 400.688 47 L 391.159 47 390.448 50.250 C 389.775 53.321, 374.617 97.074, 371.998 103.500 C 370.835 106.356, 370.296 105.073, 360.795 76.814 L 350.815 47.129 340.905 46.814 C 334.735 46.619, 331.013 46.877, 331.043 47.500 M 187.365 61.931 C 182.195 63.200, 178.284 66.720, 175.325 72.768 C 172.987 77.547, 172.537 79.724, 172.590 85.994 C 172.671 95.680, 174.149 100.645, 178.442 105.661 C 184.228 112.420, 194.597 113.885, 202.424 109.047 C 212.873 102.589, 215.191 78.511, 206.372 68.031 C 201.910 62.728, 194.200 60.254, 187.365 61.931 M 460.916 91.417 C 460.687 91.647, 456.078 92.327, 450.675 92.930 C 439.185 94.211, 435.630 95.753, 434.109 100.116 C 432.714 104.118, 434.260 110.533, 436.968 111.983 C 439.959 113.584, 451.748 113.214, 455.572 111.399 C 460.635 108.996, 465 101.788, 465 95.829 C 465 91.813, 464.691 91, 463.167 91 C 462.158 91, 461.146 91.188, 460.916 91.417" stroke="none" fill="#fafafa" fill-rule="evenodd"/></svg>